<mxfile host="app.diagrams.net" modified="2023-06-01T12:17:18.124Z" agent="Mozilla/5.0 (Windows NT 10.0; Win64; x64; rv:109.0) Gecko/20100101 Firefox/113.0" etag="karbbBDS_TNUNV_iNju1" version="21.2.9">
  <diagram name="Page-1" id="fV0_WuM_VutWkL00gPqk">
    <mxGraphModel dx="1696" dy="933" grid="1" gridSize="10" guides="1" tooltips="1" connect="1" arrows="1" fold="1" page="1" pageScale="1" pageWidth="850" pageHeight="1100" math="0" shadow="0">
      <root>
        <mxCell id="0" />
        <mxCell id="1" parent="0" />
        <mxCell id="sjmafnQ9x98a60_hXAWV-82" style="edgeStyle=orthogonalEdgeStyle;rounded=0;orthogonalLoop=1;jettySize=auto;html=1;exitX=1;exitY=0.5;exitDx=0;exitDy=0;entryX=0;entryY=0.25;entryDx=0;entryDy=0;fillColor=#b0e3e6;strokeColor=#0e8088;strokeWidth=2;" edge="1" parent="1" source="sjmafnQ9x98a60_hXAWV-78" target="sjmafnQ9x98a60_hXAWV-31">
          <mxGeometry relative="1" as="geometry" />
        </mxCell>
        <mxCell id="sjmafnQ9x98a60_hXAWV-12" value="" style="ellipse;shape=cloud;whiteSpace=wrap;html=1;fillColor=#f5f5f5;fontColor=#333333;strokeColor=#666666;" vertex="1" parent="1">
          <mxGeometry x="80" y="230" width="210" height="260" as="geometry" />
        </mxCell>
        <mxCell id="sjmafnQ9x98a60_hXAWV-14" style="edgeStyle=orthogonalEdgeStyle;rounded=0;orthogonalLoop=1;jettySize=auto;html=1;exitX=1;exitY=0;exitDx=0;exitDy=43.125;exitPerimeter=0;entryX=0;entryY=0.25;entryDx=0;entryDy=0;fillColor=#d5e8d4;strokeColor=#82b366;strokeWidth=2;" edge="1" parent="1" source="sjmafnQ9x98a60_hXAWV-1" target="sjmafnQ9x98a60_hXAWV-5">
          <mxGeometry relative="1" as="geometry" />
        </mxCell>
        <mxCell id="sjmafnQ9x98a60_hXAWV-1" value="&lt;b&gt;Steam&lt;/b&gt;" style="shape=cylinder3;whiteSpace=wrap;html=1;boundedLbl=1;backgroundOutline=1;size=15;fillColor=#647687;fontColor=#ffffff;strokeColor=#314354;" vertex="1" parent="1">
          <mxGeometry y="280" width="80" height="142.5" as="geometry" />
        </mxCell>
        <mxCell id="sjmafnQ9x98a60_hXAWV-6" value="docker" style="swimlane;whiteSpace=wrap;html=1;fillColor=#dae8fc;strokeColor=#6c8ebf;strokeWidth=3;" vertex="1" parent="1">
          <mxGeometry x="320" y="10" width="920" height="470" as="geometry" />
        </mxCell>
        <mxCell id="sjmafnQ9x98a60_hXAWV-95" style="edgeStyle=orthogonalEdgeStyle;rounded=0;orthogonalLoop=1;jettySize=auto;html=1;exitX=0.75;exitY=0;exitDx=0;exitDy=0;entryX=0.145;entryY=1;entryDx=0;entryDy=-4.35;entryPerimeter=0;strokeWidth=2;fillColor=#b0e3e6;strokeColor=#0e8088;" edge="1" parent="sjmafnQ9x98a60_hXAWV-6" source="sjmafnQ9x98a60_hXAWV-22" target="sjmafnQ9x98a60_hXAWV-4">
          <mxGeometry relative="1" as="geometry">
            <Array as="points">
              <mxPoint x="85" y="200" />
              <mxPoint x="302" y="200" />
            </Array>
          </mxGeometry>
        </mxCell>
        <mxCell id="sjmafnQ9x98a60_hXAWV-4" value="&lt;b&gt;database&lt;/b&gt;" style="shape=cylinder3;whiteSpace=wrap;html=1;boundedLbl=1;backgroundOutline=1;size=15;fillColor=#dae8fc;strokeColor=#6c8ebf;" vertex="1" parent="sjmafnQ9x98a60_hXAWV-6">
          <mxGeometry x="290" y="27" width="80" height="130" as="geometry" />
        </mxCell>
        <mxCell id="sjmafnQ9x98a60_hXAWV-111" style="edgeStyle=orthogonalEdgeStyle;rounded=0;orthogonalLoop=1;jettySize=auto;html=1;exitX=1;exitY=0.25;exitDx=0;exitDy=0;entryX=0.5;entryY=1;entryDx=0;entryDy=0;entryPerimeter=0;fillColor=#d5e8d4;strokeColor=#82b366;strokeWidth=2;" edge="1" parent="sjmafnQ9x98a60_hXAWV-6" source="sjmafnQ9x98a60_hXAWV-5" target="sjmafnQ9x98a60_hXAWV-4">
          <mxGeometry relative="1" as="geometry" />
        </mxCell>
        <mxCell id="sjmafnQ9x98a60_hXAWV-5" value="&lt;div&gt;&lt;b&gt;data preprocess&lt;/b&gt;&lt;/div&gt;&lt;div&gt;&lt;b&gt;server&lt;br&gt;&lt;/b&gt;&lt;/div&gt;" style="shape=process;whiteSpace=wrap;html=1;backgroundOutline=1;fillColor=#dae8fc;strokeColor=#6c8ebf;" vertex="1" parent="sjmafnQ9x98a60_hXAWV-6">
          <mxGeometry y="320" width="120" height="80" as="geometry" />
        </mxCell>
        <mxCell id="sjmafnQ9x98a60_hXAWV-23" value="gaugeDB.fi" style="swimlane;whiteSpace=wrap;html=1;fillColor=#dae8fc;strokeColor=#6c8ebf;strokeWidth=2;" vertex="1" parent="sjmafnQ9x98a60_hXAWV-6">
          <mxGeometry x="720" y="29" width="200" height="408" as="geometry" />
        </mxCell>
        <mxCell id="sjmafnQ9x98a60_hXAWV-35" value="predict &lt;b&gt;X&lt;/b&gt;" style="shape=process;whiteSpace=wrap;html=1;backgroundOutline=1;fillColor=#f8cecc;strokeColor=#b85450;" vertex="1" parent="sjmafnQ9x98a60_hXAWV-23">
          <mxGeometry x="110" y="228" width="90" height="60" as="geometry" />
        </mxCell>
        <mxCell id="sjmafnQ9x98a60_hXAWV-34" value="package.json" style="shape=note;whiteSpace=wrap;html=1;backgroundOutline=1;darkOpacity=0.05;size=20;fillColor=#b0e3e6;strokeColor=#0e8088;" vertex="1" parent="sjmafnQ9x98a60_hXAWV-23">
          <mxGeometry x="30" y="48" width="90" height="60" as="geometry" />
        </mxCell>
        <mxCell id="sjmafnQ9x98a60_hXAWV-98" value="graph" style="shape=process;whiteSpace=wrap;html=1;backgroundOutline=1;fillColor=#b0e3e6;strokeColor=#0e8088;" vertex="1" parent="sjmafnQ9x98a60_hXAWV-23">
          <mxGeometry x="60" y="148" width="100" height="52" as="geometry" />
        </mxCell>
        <mxCell id="sjmafnQ9x98a60_hXAWV-71" style="edgeStyle=orthogonalEdgeStyle;rounded=0;orthogonalLoop=1;jettySize=auto;html=1;exitX=0.25;exitY=1;exitDx=0;exitDy=0;entryX=0.75;entryY=1;entryDx=0;entryDy=0;fillColor=#f8cecc;strokeColor=#b85450;strokeWidth=2;" edge="1" parent="sjmafnQ9x98a60_hXAWV-6" source="sjmafnQ9x98a60_hXAWV-46" target="sjmafnQ9x98a60_hXAWV-5">
          <mxGeometry relative="1" as="geometry">
            <Array as="points">
              <mxPoint x="473" y="430" />
              <mxPoint x="90" y="430" />
            </Array>
          </mxGeometry>
        </mxCell>
        <mxCell id="sjmafnQ9x98a60_hXAWV-109" value="game id" style="edgeLabel;html=1;align=center;verticalAlign=middle;resizable=0;points=[];" vertex="1" connectable="0" parent="sjmafnQ9x98a60_hXAWV-71">
          <mxGeometry x="0.0684" y="1" relative="1" as="geometry">
            <mxPoint as="offset" />
          </mxGeometry>
        </mxCell>
        <mxCell id="sjmafnQ9x98a60_hXAWV-46" value="main" style="swimlane;whiteSpace=wrap;html=1;fillColor=#dae8fc;strokeColor=#6c8ebf;strokeWidth=2;" vertex="1" parent="sjmafnQ9x98a60_hXAWV-6">
          <mxGeometry x="430" y="30" width="170" height="330" as="geometry" />
        </mxCell>
        <mxCell id="sjmafnQ9x98a60_hXAWV-40" value="&lt;div&gt;processed&lt;/div&gt;&lt;div&gt;games&lt;/div&gt;&lt;div&gt;list&lt;br&gt;&lt;/div&gt;" style="shape=note;whiteSpace=wrap;html=1;backgroundOutline=1;darkOpacity=0.05;size=15;fillColor=#e1d5e7;strokeColor=#9673a6;strokeWidth=2;" vertex="1" parent="sjmafnQ9x98a60_hXAWV-46">
          <mxGeometry y="141" width="70" height="73" as="geometry" />
        </mxCell>
        <mxCell id="sjmafnQ9x98a60_hXAWV-68" style="edgeStyle=orthogonalEdgeStyle;rounded=0;orthogonalLoop=1;jettySize=auto;html=1;exitX=0.25;exitY=1;exitDx=0;exitDy=0;entryX=0.25;entryY=1;entryDx=0;entryDy=0;fillColor=#f8cecc;strokeColor=#b85450;strokeWidth=2;" edge="1" parent="sjmafnQ9x98a60_hXAWV-46" source="sjmafnQ9x98a60_hXAWV-57" target="sjmafnQ9x98a60_hXAWV-46">
          <mxGeometry relative="1" as="geometry">
            <Array as="points">
              <mxPoint x="110" y="250" />
              <mxPoint x="43" y="250" />
            </Array>
          </mxGeometry>
        </mxCell>
        <mxCell id="sjmafnQ9x98a60_hXAWV-70" value="&lt;b&gt;&lt;font style=&quot;font-size: 13px;&quot;&gt;no&lt;/font&gt;&lt;/b&gt;" style="edgeLabel;html=1;align=center;verticalAlign=middle;resizable=0;points=[];" vertex="1" connectable="0" parent="sjmafnQ9x98a60_hXAWV-68">
          <mxGeometry x="0.4387" y="-1" relative="1" as="geometry">
            <mxPoint as="offset" />
          </mxGeometry>
        </mxCell>
        <mxCell id="sjmafnQ9x98a60_hXAWV-79" style="edgeStyle=orthogonalEdgeStyle;rounded=0;orthogonalLoop=1;jettySize=auto;html=1;exitX=0.25;exitY=0;exitDx=0;exitDy=0;entryX=0.5;entryY=1;entryDx=0;entryDy=0;fillColor=#b0e3e6;strokeColor=#0e8088;strokeWidth=2;" edge="1" parent="sjmafnQ9x98a60_hXAWV-46" source="sjmafnQ9x98a60_hXAWV-57" target="sjmafnQ9x98a60_hXAWV-78">
          <mxGeometry relative="1" as="geometry" />
        </mxCell>
        <mxCell id="sjmafnQ9x98a60_hXAWV-80" value="&lt;b&gt;&lt;font style=&quot;font-size: 13px;&quot;&gt;yes&lt;/font&gt;&lt;/b&gt;" style="edgeLabel;html=1;align=center;verticalAlign=middle;resizable=0;points=[];" vertex="1" connectable="0" parent="sjmafnQ9x98a60_hXAWV-79">
          <mxGeometry x="-0.1655" y="1" relative="1" as="geometry">
            <mxPoint as="offset" />
          </mxGeometry>
        </mxCell>
        <mxCell id="sjmafnQ9x98a60_hXAWV-57" value="&lt;div&gt;check if processed&lt;br&gt;&lt;/div&gt;" style="shape=process;whiteSpace=wrap;html=1;backgroundOutline=1;fillColor=#f8cecc;strokeColor=#b85450;" vertex="1" parent="sjmafnQ9x98a60_hXAWV-46">
          <mxGeometry x="90" y="190" width="80" height="43" as="geometry" />
        </mxCell>
        <mxCell id="sjmafnQ9x98a60_hXAWV-58" value="" style="endArrow=none;html=1;rounded=0;exitX=0;exitY=0;exitDx=0;exitDy=0;entryX=0;entryY=0;entryDx=70;entryDy=44;entryPerimeter=0;" edge="1" parent="sjmafnQ9x98a60_hXAWV-46" source="sjmafnQ9x98a60_hXAWV-57" target="sjmafnQ9x98a60_hXAWV-40">
          <mxGeometry width="50" height="50" relative="1" as="geometry">
            <mxPoint x="30" y="120" as="sourcePoint" />
            <mxPoint x="80" y="70" as="targetPoint" />
          </mxGeometry>
        </mxCell>
        <mxCell id="sjmafnQ9x98a60_hXAWV-78" value="fetch" style="shape=process;whiteSpace=wrap;html=1;backgroundOutline=1;fillColor=#f8cecc;strokeColor=#b85450;" vertex="1" parent="sjmafnQ9x98a60_hXAWV-46">
          <mxGeometry x="25" y="40" width="120" height="60" as="geometry" />
        </mxCell>
        <mxCell id="sjmafnQ9x98a60_hXAWV-81" value="" style="endArrow=classic;startArrow=classic;html=1;rounded=0;entryX=0;entryY=0.5;entryDx=0;entryDy=0;fillColor=#b0e3e6;strokeColor=#0e8088;strokeWidth=2;" edge="1" parent="sjmafnQ9x98a60_hXAWV-6" target="sjmafnQ9x98a60_hXAWV-78">
          <mxGeometry width="50" height="50" relative="1" as="geometry">
            <mxPoint x="370" y="100" as="sourcePoint" />
            <mxPoint x="380" y="150" as="targetPoint" />
          </mxGeometry>
        </mxCell>
        <mxCell id="sjmafnQ9x98a60_hXAWV-18" value="ai-server" style="swimlane;whiteSpace=wrap;html=1;fillColor=#dae8fc;strokeColor=#6c8ebf;strokeWidth=2;" vertex="1" parent="sjmafnQ9x98a60_hXAWV-6">
          <mxGeometry y="30" width="240" height="273.5" as="geometry" />
        </mxCell>
        <mxCell id="sjmafnQ9x98a60_hXAWV-88" style="edgeStyle=orthogonalEdgeStyle;rounded=0;orthogonalLoop=1;jettySize=auto;html=1;exitX=0.5;exitY=1;exitDx=0;exitDy=0;entryX=0.5;entryY=0;entryDx=0;entryDy=0;fillColor=#d5e8d4;strokeColor=#82b366;strokeWidth=2;" edge="1" parent="sjmafnQ9x98a60_hXAWV-18" source="sjmafnQ9x98a60_hXAWV-19" target="sjmafnQ9x98a60_hXAWV-87">
          <mxGeometry relative="1" as="geometry" />
        </mxCell>
        <mxCell id="sjmafnQ9x98a60_hXAWV-19" value="&lt;font style=&quot;font-size: 10px;&quot;&gt;feature building&lt;/font&gt;" style="shape=process;whiteSpace=wrap;html=1;backgroundOutline=1;fillColor=#f8cecc;strokeColor=#b85450;" vertex="1" parent="sjmafnQ9x98a60_hXAWV-18">
          <mxGeometry x="130" y="23" width="110" height="47" as="geometry" />
        </mxCell>
        <mxCell id="sjmafnQ9x98a60_hXAWV-22" value="predict" style="shape=process;whiteSpace=wrap;html=1;backgroundOutline=1;fillColor=#f8cecc;strokeColor=#b85450;" vertex="1" parent="sjmafnQ9x98a60_hXAWV-18">
          <mxGeometry x="25" y="193" width="80" height="37" as="geometry" />
        </mxCell>
        <mxCell id="sjmafnQ9x98a60_hXAWV-93" style="edgeStyle=orthogonalEdgeStyle;rounded=0;orthogonalLoop=1;jettySize=auto;html=1;exitX=0;exitY=0.5;exitDx=0;exitDy=0;entryX=0.5;entryY=0;entryDx=0;entryDy=0;fillColor=#d5e8d4;strokeColor=#82b366;strokeWidth=2;" edge="1" parent="sjmafnQ9x98a60_hXAWV-18" source="sjmafnQ9x98a60_hXAWV-87" target="sjmafnQ9x98a60_hXAWV-22">
          <mxGeometry relative="1" as="geometry" />
        </mxCell>
        <mxCell id="sjmafnQ9x98a60_hXAWV-87" value="&lt;div&gt;AI&lt;br&gt;&lt;/div&gt;&lt;div&gt;load/build&lt;/div&gt;" style="shape=process;whiteSpace=wrap;html=1;backgroundOutline=1;fillColor=#f8cecc;strokeColor=#b85450;" vertex="1" parent="sjmafnQ9x98a60_hXAWV-18">
          <mxGeometry x="120" y="103" width="90" height="40" as="geometry" />
        </mxCell>
        <mxCell id="sjmafnQ9x98a60_hXAWV-89" value="&lt;div&gt;AI&lt;/div&gt;&lt;div&gt;save/store&lt;br&gt;&lt;/div&gt;" style="shape=process;whiteSpace=wrap;html=1;backgroundOutline=1;fillColor=#f5f5f5;fontColor=#333333;strokeColor=#666666;" vertex="1" parent="sjmafnQ9x98a60_hXAWV-18">
          <mxGeometry y="30" width="90" height="40" as="geometry" />
        </mxCell>
        <mxCell id="sjmafnQ9x98a60_hXAWV-91" value="" style="endArrow=classic;startArrow=classic;html=1;rounded=0;entryX=0;entryY=0;entryDx=0;entryDy=0;exitX=1;exitY=1;exitDx=0;exitDy=0;" edge="1" parent="sjmafnQ9x98a60_hXAWV-18" source="sjmafnQ9x98a60_hXAWV-89" target="sjmafnQ9x98a60_hXAWV-87">
          <mxGeometry width="50" height="50" relative="1" as="geometry">
            <mxPoint x="210" y="213" as="sourcePoint" />
            <mxPoint x="260" y="163" as="targetPoint" />
          </mxGeometry>
        </mxCell>
        <mxCell id="sjmafnQ9x98a60_hXAWV-92" value="graph_data" style="shape=note;whiteSpace=wrap;html=1;backgroundOutline=1;darkOpacity=0.05;size=20;fillColor=#b0e3e6;strokeColor=#0e8088;" vertex="1" parent="sjmafnQ9x98a60_hXAWV-18">
          <mxGeometry x="140" y="153" width="90" height="60" as="geometry" />
        </mxCell>
        <mxCell id="sjmafnQ9x98a60_hXAWV-97" style="edgeStyle=orthogonalEdgeStyle;rounded=0;orthogonalLoop=1;jettySize=auto;html=1;exitX=0.75;exitY=1;exitDx=0;exitDy=0;entryX=-0.017;entryY=0.715;entryDx=0;entryDy=0;entryPerimeter=0;fillColor=#e1d5e7;strokeColor=#9673a6;strokeWidth=2;" edge="1" parent="sjmafnQ9x98a60_hXAWV-6" source="sjmafnQ9x98a60_hXAWV-22" target="sjmafnQ9x98a60_hXAWV-40">
          <mxGeometry relative="1" as="geometry" />
        </mxCell>
        <mxCell id="sjmafnQ9x98a60_hXAWV-110" value="add to list" style="edgeLabel;html=1;align=center;verticalAlign=middle;resizable=0;points=[];" vertex="1" connectable="0" parent="sjmafnQ9x98a60_hXAWV-97">
          <mxGeometry x="0.1641" y="-1" relative="1" as="geometry">
            <mxPoint as="offset" />
          </mxGeometry>
        </mxCell>
        <mxCell id="sjmafnQ9x98a60_hXAWV-101" value="" style="endArrow=classic;startArrow=classic;html=1;rounded=0;entryX=0.875;entryY=0.965;entryDx=0;entryDy=0;entryPerimeter=0;exitX=1;exitY=0.75;exitDx=0;exitDy=0;fillColor=#fff2cc;strokeColor=#d6b656;strokeWidth=2;" edge="1" parent="sjmafnQ9x98a60_hXAWV-6" source="sjmafnQ9x98a60_hXAWV-5" target="sjmafnQ9x98a60_hXAWV-4">
          <mxGeometry width="50" height="50" relative="1" as="geometry">
            <mxPoint x="450" y="270" as="sourcePoint" />
            <mxPoint x="500" y="220" as="targetPoint" />
            <Array as="points">
              <mxPoint x="360" y="380" />
            </Array>
          </mxGeometry>
        </mxCell>
        <mxCell id="sjmafnQ9x98a60_hXAWV-28" value="&lt;div&gt;word&lt;/div&gt;&lt;div&gt;dictionary&lt;br&gt;&lt;/div&gt;" style="shape=note;whiteSpace=wrap;html=1;backgroundOutline=1;darkOpacity=0.05;size=15;fillColor=#fff2cc;strokeColor=#d6b656;" vertex="1" parent="sjmafnQ9x98a60_hXAWV-6">
          <mxGeometry x="330" y="350" width="60" height="60" as="geometry" />
        </mxCell>
        <mxCell id="sjmafnQ9x98a60_hXAWV-107" style="edgeStyle=orthogonalEdgeStyle;rounded=0;orthogonalLoop=1;jettySize=auto;html=1;exitX=0;exitY=0.5;exitDx=0;exitDy=0;fillColor=#f8cecc;strokeColor=#b85450;strokeWidth=2;" edge="1" parent="sjmafnQ9x98a60_hXAWV-6" source="sjmafnQ9x98a60_hXAWV-35" target="sjmafnQ9x98a60_hXAWV-57">
          <mxGeometry relative="1" as="geometry">
            <Array as="points">
              <mxPoint x="680" y="287" />
              <mxPoint x="680" y="242" />
            </Array>
          </mxGeometry>
        </mxCell>
        <mxCell id="sjmafnQ9x98a60_hXAWV-112" value="" style="endArrow=classic;html=1;rounded=0;entryX=1;entryY=0.5;entryDx=0;entryDy=0;exitX=-0.001;exitY=0.382;exitDx=0;exitDy=0;exitPerimeter=0;fillColor=#d5e8d4;strokeColor=#82b366;strokeWidth=2;" edge="1" parent="sjmafnQ9x98a60_hXAWV-6">
          <mxGeometry width="50" height="50" relative="1" as="geometry">
            <mxPoint x="289.9200000000001" y="75.66" as="sourcePoint" />
            <mxPoint x="239.9999999999999" y="75.5" as="targetPoint" />
          </mxGeometry>
        </mxCell>
        <mxCell id="sjmafnQ9x98a60_hXAWV-13" style="edgeStyle=orthogonalEdgeStyle;rounded=0;orthogonalLoop=1;jettySize=auto;html=1;exitX=0;exitY=0.75;exitDx=0;exitDy=0;entryX=1;entryY=0;entryDx=0;entryDy=99.375;entryPerimeter=0;fillColor=#f8cecc;strokeColor=#b85450;strokeWidth=2;" edge="1" parent="1" source="sjmafnQ9x98a60_hXAWV-5" target="sjmafnQ9x98a60_hXAWV-1">
          <mxGeometry relative="1" as="geometry" />
        </mxCell>
        <mxCell id="sjmafnQ9x98a60_hXAWV-11" value="api-query" style="shape=note;whiteSpace=wrap;html=1;backgroundOutline=1;darkOpacity=0.05;size=15;fillColor=#f8cecc;strokeColor=#b85450;" vertex="1" parent="1">
          <mxGeometry x="210" y="360" width="50" height="62.5" as="geometry" />
        </mxCell>
        <mxCell id="sjmafnQ9x98a60_hXAWV-10" value="data" style="shape=note;whiteSpace=wrap;html=1;backgroundOutline=1;darkOpacity=0.05;size=19;fillColor=#d5e8d4;strokeColor=#82b366;" vertex="1" parent="1">
          <mxGeometry x="140" y="300" width="50" height="60" as="geometry" />
        </mxCell>
        <mxCell id="sjmafnQ9x98a60_hXAWV-116" style="edgeStyle=orthogonalEdgeStyle;rounded=0;orthogonalLoop=1;jettySize=auto;html=1;exitX=0;exitY=0.3333333333333333;exitDx=0;exitDy=0;exitPerimeter=0;entryX=1.005;entryY=0.451;entryDx=0;entryDy=0;entryPerimeter=0;" edge="1" parent="1" source="sjmafnQ9x98a60_hXAWV-30" target="sjmafnQ9x98a60_hXAWV-31">
          <mxGeometry relative="1" as="geometry" />
        </mxCell>
        <mxCell id="sjmafnQ9x98a60_hXAWV-30" value="user" style="shape=umlActor;verticalLabelPosition=bottom;verticalAlign=top;html=1;outlineConnect=0;" vertex="1" parent="1">
          <mxGeometry x="1510" y="230" width="30" height="60" as="geometry" />
        </mxCell>
        <mxCell id="sjmafnQ9x98a60_hXAWV-103" style="edgeStyle=orthogonalEdgeStyle;rounded=0;orthogonalLoop=1;jettySize=auto;html=1;exitX=0;exitY=0.75;exitDx=0;exitDy=0;fillColor=#f8cecc;strokeColor=#b85450;strokeWidth=2;" edge="1" parent="1" source="sjmafnQ9x98a60_hXAWV-31" target="sjmafnQ9x98a60_hXAWV-35">
          <mxGeometry relative="1" as="geometry" />
        </mxCell>
        <mxCell id="sjmafnQ9x98a60_hXAWV-104" value="Game id" style="edgeLabel;html=1;align=center;verticalAlign=middle;resizable=0;points=[];" vertex="1" connectable="0" parent="sjmafnQ9x98a60_hXAWV-103">
          <mxGeometry x="0.2556" y="-3" relative="1" as="geometry">
            <mxPoint as="offset" />
          </mxGeometry>
        </mxCell>
        <mxCell id="sjmafnQ9x98a60_hXAWV-31" value="&lt;font style=&quot;font-size: 14px;&quot;&gt;browser&lt;/font&gt;" style="rounded=1;whiteSpace=wrap;html=1;" vertex="1" parent="1">
          <mxGeometry x="1340" y="160" width="120" height="200" as="geometry" />
        </mxCell>
      </root>
    </mxGraphModel>
  </diagram>
</mxfile>
